<svg width="11" height="16" viewBox="0 0 11 16" fill="none" xmlns="http://www.w3.org/2000/svg">
<path id="Vector" d="M1.54019 14.4188L1.5402 14.4188L8.18401 8.36973L8.59007 8.00001L8.18401 7.6303L1.54021 1.58127C1.5402 1.58127 1.5402 1.58127 1.5402 1.58127C1.26785 1.33329 1.26785 0.95242 1.5402 0.70445C1.8396 0.431852 2.34272 0.431848 2.64214 0.70445C2.64214 0.704451 2.64214 0.704452 2.64214 0.704453L10.1735 7.5616C10.4459 7.80958 10.4459 8.19045 10.1735 8.43843L2.64215 15.2956C2.64215 15.2956 2.64214 15.2956 2.64214 15.2956C2.34272 15.5681 1.83959 15.5681 1.54019 15.2956C1.26785 15.0476 1.26785 14.6667 1.54019 14.4188Z" fill="#35363A" stroke="black"/>
</svg>
